<mxfile host="65bd71144e">
    <diagram id="0OFpiNYsLwew1hENZrzg" name="Seite-1">
        <mxGraphModel dx="1061" dy="699" grid="1" gridSize="10" guides="1" tooltips="1" connect="1" arrows="1" fold="1" page="1" pageScale="1" pageWidth="827" pageHeight="1169" background="#ffffff" math="0" shadow="0">
            <root>
                <mxCell id="0"/>
                <mxCell id="1" parent="0"/>
                <mxCell id="14" style="edgeStyle=none;html=1;exitX=1;exitY=0.75;exitDx=0;exitDy=0;strokeColor=#000000;fontFamily=TeX Gyre Termes;fontSize=9;fontColor=#000000;endArrow=none;endFill=0;strokeWidth=2;" edge="1" parent="1" source="3" target="13">
                    <mxGeometry relative="1" as="geometry">
                        <Array as="points">
                            <mxPoint x="545" y="210"/>
                        </Array>
                    </mxGeometry>
                </mxCell>
                <mxCell id="43" style="edgeStyle=none;html=1;entryX=0.5;entryY=1;entryDx=0;entryDy=0;strokeColor=#000000;fontFamily=TeX Gyre Termes;fontSize=9;fontColor=#000000;endArrow=classic;endFill=1;exitX=0.75;exitY=0;exitDx=0;exitDy=0;strokeWidth=2;" edge="1" parent="1" source="3" target="24">
                    <mxGeometry relative="1" as="geometry"/>
                </mxCell>
                <mxCell id="3" value="&lt;b style=&quot;font-size: 20px;&quot;&gt;IDLE&lt;br&gt;&lt;/b&gt;&lt;br style=&quot;&quot;&gt;&lt;br style=&quot;&quot;&gt;&lt;span style=&quot;&quot;&gt;do / waiting for player input&lt;/span&gt;&lt;br style=&quot;&quot;&gt;&lt;span style=&quot;&quot;&gt;exit / initialize shot&lt;/span&gt;" style="html=1;align=center;verticalAlign=middle;rounded=1;absoluteArcSize=1;arcSize=30;dashed=0;fillColor=#B3C5D0;fontColor=#000000;strokeColor=#000000;fontFamily=TeX Gyre Termes;whiteSpace=wrap;shadow=0;glass=0;" parent="1" vertex="1">
                    <mxGeometry x="200" y="120" width="240" height="120" as="geometry"/>
                </mxCell>
                <mxCell id="4" style="edgeStyle=none;html=1;entryX=0.25;entryY=0;entryDx=0;entryDy=0;strokeColor=#000000;fontFamily=TeX Gyre Termes;fontSize=20;fontColor=#000000;strokeWidth=2;" parent="1" source="5" target="3" edge="1">
                    <mxGeometry relative="1" as="geometry"/>
                </mxCell>
                <mxCell id="5" value="" style="ellipse;fillColor=strokeColor;strokeColor=#000000;" parent="1" vertex="1">
                    <mxGeometry x="240" y="40" width="40" height="40" as="geometry"/>
                </mxCell>
                <mxCell id="22" style="edgeStyle=none;html=1;exitX=0;exitY=0.75;exitDx=0;exitDy=0;strokeColor=#000000;fontFamily=TeX Gyre Termes;fontSize=9;fontColor=#000000;endArrow=none;endFill=0;strokeWidth=2;" edge="1" parent="1" source="7" target="17">
                    <mxGeometry relative="1" as="geometry">
                        <Array as="points">
                            <mxPoint x="140" y="370"/>
                        </Array>
                    </mxGeometry>
                </mxCell>
                <mxCell id="35" style="edgeStyle=none;html=1;entryX=0;entryY=0.75;entryDx=0;entryDy=0;strokeColor=#000000;fontFamily=TeX Gyre Termes;fontSize=9;fontColor=#000000;endArrow=classic;endFill=1;startArrow=none;strokeWidth=2;" edge="1" parent="1" source="29" target="3">
                    <mxGeometry relative="1" as="geometry">
                        <Array as="points">
                            <mxPoint x="140" y="210"/>
                        </Array>
                    </mxGeometry>
                </mxCell>
                <mxCell id="7" value="&lt;b&gt;&lt;font style=&quot;font-size: 20px;&quot;&gt;FLIGHT&lt;/font&gt;&lt;br&gt;&lt;/b&gt;&lt;br&gt;entry / start moving animation&lt;br style=&quot;&quot;&gt;do / constant shot movement&lt;br style=&quot;&quot;&gt;exit /&amp;nbsp;&lt;span style=&quot;&quot;&gt;initialize movement-stop&lt;/span&gt;" style="html=1;align=center;verticalAlign=middle;rounded=1;absoluteArcSize=1;arcSize=30;dashed=0;fillColor=#B3C5D0;fontColor=#000000;strokeColor=#000000;fontFamily=TeX Gyre Termes;whiteSpace=wrap;shadow=0;glass=0;" parent="1" vertex="1">
                    <mxGeometry x="200" y="280" width="240" height="120" as="geometry"/>
                </mxCell>
                <mxCell id="37" style="edgeStyle=none;html=1;entryX=0;entryY=0.25;entryDx=0;entryDy=0;strokeColor=#000000;fontFamily=TeX Gyre Termes;fontSize=9;fontColor=#000000;endArrow=classic;endFill=1;startArrow=none;strokeWidth=2;" edge="1" parent="1" source="40" target="3">
                    <mxGeometry relative="1" as="geometry">
                        <Array as="points">
                            <mxPoint x="90" y="150"/>
                        </Array>
                    </mxGeometry>
                </mxCell>
                <mxCell id="8" value="&lt;b style=&quot;font-size: 20px;&quot;&gt;IMPACT&lt;br&gt;&lt;/b&gt;&lt;br&gt;entry / reduce obstacle live&lt;br style=&quot;&quot;&gt;do / impact animation&lt;br style=&quot;&quot;&gt;" style="html=1;align=center;verticalAlign=middle;rounded=1;absoluteArcSize=1;arcSize=30;dashed=0;fillColor=#B3C5D0;fontColor=#000000;strokeColor=#000000;fontFamily=TeX Gyre Termes;whiteSpace=wrap;shadow=0;glass=0;" parent="1" vertex="1">
                    <mxGeometry x="200" y="440" width="240" height="120" as="geometry"/>
                </mxCell>
                <mxCell id="34" style="edgeStyle=none;html=1;strokeColor=#000000;fontFamily=TeX Gyre Termes;fontSize=9;fontColor=#000000;endArrow=none;endFill=0;strokeWidth=2;" edge="1" parent="1" target="31">
                    <mxGeometry relative="1" as="geometry">
                        <mxPoint x="665" y="440" as="sourcePoint"/>
                    </mxGeometry>
                </mxCell>
                <mxCell id="9" value="&lt;b&gt;&lt;font style=&quot;font-size: 20px;&quot;&gt;COOLDOWN&lt;/font&gt;&lt;br&gt;&lt;/b&gt;&lt;br style=&quot;&quot;&gt;&lt;span style=&quot;&quot;&gt;entry / start Timer&lt;/span&gt;&lt;br style=&quot;&quot;&gt;&lt;span style=&quot;&quot;&gt;do / waiting for Timer&lt;br&gt;&lt;/span&gt;" style="html=1;align=center;verticalAlign=middle;rounded=1;absoluteArcSize=1;arcSize=30;dashed=0;fillColor=#B3C5D0;fontColor=#000000;strokeColor=#000000;fontFamily=TeX Gyre Termes;whiteSpace=wrap;shadow=0;glass=0;" parent="1" vertex="1">
                    <mxGeometry x="480" y="440" width="240" height="120" as="geometry"/>
                </mxCell>
                <mxCell id="19" style="edgeStyle=none;html=1;strokeColor=#000000;fontFamily=TeX Gyre Termes;fontSize=9;fontColor=#000000;endArrow=classic;endFill=1;strokeWidth=2;" edge="1" parent="1" source="13" target="18">
                    <mxGeometry relative="1" as="geometry"/>
                </mxCell>
                <mxCell id="13" value="player input (spacebar)" style="text;html=1;align=center;verticalAlign=middle;resizable=0;points=[];autosize=1;strokeColor=none;fillColor=none;fontColor=#000000;fontFamily=TeX Gyre Termes;fontStyle=1;fontSize=9;" vertex="1" parent="1">
                    <mxGeometry x="490" y="240" width="110" height="20" as="geometry"/>
                </mxCell>
                <mxCell id="23" style="edgeStyle=none;html=1;entryX=0;entryY=0.25;entryDx=0;entryDy=0;strokeColor=#000000;fontFamily=TeX Gyre Termes;fontSize=9;fontColor=#000000;endArrow=classic;endFill=1;strokeWidth=2;" edge="1" parent="1" source="17" target="8">
                    <mxGeometry relative="1" as="geometry">
                        <Array as="points">
                            <mxPoint x="140" y="470"/>
                        </Array>
                    </mxGeometry>
                </mxCell>
                <mxCell id="17" value="&lt;font style=&quot;font-size: 9px;&quot;&gt;hitting obstacle&lt;/font&gt;" style="text;html=1;align=center;verticalAlign=middle;resizable=0;points=[];autosize=1;strokeColor=none;fillColor=none;fontSize=9;fontFamily=TeX Gyre Termes;fontColor=#000000;rotation=0;fontStyle=1" vertex="1" parent="1">
                    <mxGeometry x="100" y="410" width="80" height="20" as="geometry"/>
                </mxCell>
                <mxCell id="20" style="edgeStyle=none;html=1;entryX=1;entryY=0.25;entryDx=0;entryDy=0;strokeColor=#000000;fontFamily=TeX Gyre Termes;fontSize=9;fontColor=#000000;endArrow=classic;endFill=1;strokeWidth=2;" edge="1" parent="1" source="18" target="7">
                    <mxGeometry relative="1" as="geometry">
                        <Array as="points">
                            <mxPoint x="520" y="310"/>
                        </Array>
                    </mxGeometry>
                </mxCell>
                <mxCell id="21" style="edgeStyle=none;html=1;entryX=0.375;entryY=0;entryDx=0;entryDy=0;entryPerimeter=0;strokeColor=#000000;fontFamily=TeX Gyre Termes;fontSize=9;fontColor=#000000;endArrow=classic;endFill=1;strokeWidth=2;" edge="1" parent="1" source="18" target="9">
                    <mxGeometry relative="1" as="geometry"/>
                </mxCell>
                <mxCell id="18" value="" style="html=1;points=[];perimeter=orthogonalPerimeter;fillColor=strokeColor;fontFamily=TeX Gyre Termes;fontSize=9;fontColor=#000000;strokeColor=#000000;rotation=90;" vertex="1" parent="1">
                    <mxGeometry x="542.5" y="240" width="5" height="80" as="geometry"/>
                </mxCell>
                <mxCell id="24" value="" style="ellipse;html=1;shape=endState;fillColor=strokeColor;strokeColor=#000000;fontFamily=TeX Gyre Termes;fontSize=9;fontColor=#000000;" vertex="1" parent="1">
                    <mxGeometry x="360" y="40" width="40" height="40" as="geometry"/>
                </mxCell>
                <mxCell id="33" style="edgeStyle=none;html=1;strokeColor=#000000;fontFamily=TeX Gyre Termes;fontSize=9;fontColor=#000000;endArrow=classic;endFill=1;exitX=0.482;exitY=-0.125;exitDx=0;exitDy=0;exitPerimeter=0;entryX=1;entryY=0.25;entryDx=0;entryDy=0;strokeWidth=2;" edge="1" parent="1" source="31" target="3">
                    <mxGeometry relative="1" as="geometry">
                        <mxPoint x="663.74" y="282.5" as="targetPoint"/>
                        <Array as="points">
                            <mxPoint x="664" y="150"/>
                        </Array>
                    </mxGeometry>
                </mxCell>
                <mxCell id="31" value="&lt;font style=&quot;font-size: 9px;&quot;&gt;timer ended&lt;/font&gt;" style="text;html=1;align=center;verticalAlign=middle;resizable=0;points=[];autosize=1;strokeColor=none;fillColor=none;fontSize=9;fontFamily=TeX Gyre Termes;fontColor=#000000;rotation=0;fontStyle=1" vertex="1" parent="1">
                    <mxGeometry x="630" y="240" width="70" height="20" as="geometry"/>
                </mxCell>
                <mxCell id="36" value="" style="edgeStyle=none;html=1;exitX=0;exitY=0.25;exitDx=0;exitDy=0;strokeColor=#000000;fontFamily=TeX Gyre Termes;fontSize=9;fontColor=#000000;endArrow=none;endFill=0;strokeWidth=2;" edge="1" parent="1" source="7" target="29">
                    <mxGeometry relative="1" as="geometry">
                        <mxPoint x="200" y="310" as="sourcePoint"/>
                        <mxPoint x="200" y="210" as="targetPoint"/>
                        <Array as="points">
                            <mxPoint x="140" y="310"/>
                        </Array>
                    </mxGeometry>
                </mxCell>
                <mxCell id="29" value="&lt;font style=&quot;font-size: 9px;&quot;&gt;left scene&lt;/font&gt;" style="text;html=1;align=center;verticalAlign=middle;resizable=0;points=[];autosize=1;strokeColor=none;fillColor=none;fontSize=9;fontFamily=TeX Gyre Termes;fontColor=#000000;rotation=0;fontStyle=1" vertex="1" parent="1">
                    <mxGeometry x="110" y="250" width="60" height="20" as="geometry"/>
                </mxCell>
                <mxCell id="41" value="" style="edgeStyle=none;html=1;exitX=0;exitY=0.75;exitDx=0;exitDy=0;strokeColor=#000000;fontFamily=TeX Gyre Termes;fontSize=9;fontColor=#000000;endArrow=none;endFill=0;strokeWidth=2;" edge="1" parent="1" source="8" target="40">
                    <mxGeometry relative="1" as="geometry">
                        <mxPoint x="200" y="530" as="sourcePoint"/>
                        <mxPoint x="200" y="150" as="targetPoint"/>
                        <Array as="points">
                            <mxPoint x="90" y="530"/>
                        </Array>
                    </mxGeometry>
                </mxCell>
                <mxCell id="40" value="impact animation ended" style="text;html=1;align=center;verticalAlign=middle;resizable=0;points=[];autosize=1;strokeColor=none;fillColor=none;fontSize=9;fontFamily=TeX Gyre Termes;fontColor=#000000;fontStyle=1" vertex="1" parent="1">
                    <mxGeometry x="30" y="330" width="120" height="20" as="geometry"/>
                </mxCell>
            </root>
        </mxGraphModel>
    </diagram>
</mxfile>